<svg width="20" height="27" viewBox="0 0 20 27" fill="none" xmlns="http://www.w3.org/2000/svg">
<path fill-rule="evenodd" clip-rule="evenodd" d="M2.41019 7.76132C2.41019 7.30492 2.67996 6.93494 3.01273 6.93494H16.2687C16.6015 6.93494 16.8713 7.30492 16.8713 7.76132C16.8713 8.21771 16.6015 8.58769 16.2687 8.58769H3.01273C2.67996 8.58769 2.41019 8.21771 2.41019 7.76132ZM2.41019 13.546C2.41019 13.0896 2.67996 12.7196 3.01273 12.7196H16.2687C16.6015 12.7196 16.8713 13.0896 16.8713 13.546C16.8713 14.0024 16.6015 14.3723 16.2687 14.3723H3.01273C2.67996 14.3723 2.41019 14.0024 2.41019 13.546ZM2.41019 19.3306C2.41019 18.8742 2.67996 18.5042 3.01273 18.5042H16.2687C16.6015 18.5042 16.8713 18.8742 16.8713 19.3306C16.8713 19.787 16.6015 20.157 16.2687 20.157H3.01273C2.67996 20.157 2.41019 19.787 2.41019 19.3306Z" fill="#212121"/>
</svg>
