<svg width="20" height="20" viewBox="0 0 20 20" fill="none" xmlns="http://www.w3.org/2000/svg">
<path d="M10 18.3333C9.80555 18.3333 9.63889 18.2777 9.5 18.1666C9.36111 18.0555 9.25694 17.9097 9.1875 17.7291C8.92361 16.9513 8.59028 16.2222 8.1875 15.5416C7.79861 14.8611 7.25 14.0625 6.54166 13.1458C5.83333 12.2291 5.25694 11.3541 4.8125 10.5208C4.38194 9.68746 4.16666 8.68051 4.16666 7.49996C4.16666 5.87496 4.72916 4.49996 5.85416 3.37496C6.99305 2.23607 8.375 1.66663 10 1.66663C11.625 1.66663 13 2.23607 14.125 3.37496C15.2639 4.49996 15.8333 5.87496 15.8333 7.49996C15.8333 8.76385 15.5903 9.8194 15.1042 10.6666C14.6319 11.5 14.0833 12.3263 13.4583 13.1458C12.7083 14.1458 12.1389 14.9791 11.75 15.6458C11.375 16.2986 11.0625 16.993 10.8125 17.7291C10.7431 17.9236 10.6319 18.0763 10.4792 18.1875C10.3403 18.2847 10.1806 18.3333 10 18.3333ZM10 9.58329C10.5833 9.58329 11.0764 9.3819 11.4792 8.97913C11.8819 8.57635 12.0833 8.08329 12.0833 7.49996C12.0833 6.91663 11.8819 6.42357 11.4792 6.02079C11.0764 5.61801 10.5833 5.41663 10 5.41663C9.41666 5.41663 8.92361 5.61801 8.52083 6.02079C8.11805 6.42357 7.91666 6.91663 7.91666 7.49996C7.91666 8.08329 8.11805 8.57635 8.52083 8.97913C8.92361 9.3819 9.41666 9.58329 10 9.58329Z" fill="#FFC107"/>
</svg>
